<?xml version="1.0" encoding="UTF-8"?>
<svg width="177px" height="40px" viewBox="0 0 177 40" version="1.1" xmlns="http://www.w3.org/2000/svg" xmlns:xlink="http://www.w3.org/1999/xlink">
    <!-- Generator: Sketch 52.1 (67048) - http://www.bohemiancoding.com/sketch -->
    <title>ML_ForBright_Horizontal@1.5x</title>
    <desc>Created with Sketch.</desc>
    <defs>
        <path d="M14.0690127,2.16430769 C13.5283231,2.48615385 13.0165771,2.78953846 12.5959724,2.96369231 C12.1359552,3.15446154 11.5336837,3.312 10.8963105,3.47876923 C9.29086904,3.89846154 7.29438217,4.42030769 5.73574297,5.97907692 C4.17648796,7.536 3.65427301,9.53107692 3.2342841,11.1341538 C3.06801283,11.7716923 2.91036303,12.3735385 2.71884316,12.8350769 C2.54518206,13.2529231 2.24219886,13.7636923 1.92074107,14.3033846 C1.06413612,15.7452308 0,17.5353846 0,19.8153846 C0,22.096 1.06413612,23.8855385 1.91889361,25.3249231 C2.24096722,25.8664615 2.54518206,26.3772308 2.71884316,26.7969231 C2.91036303,27.2578462 3.06801283,27.8596923 3.2342841,28.4972308 C3.65427301,30.0996923 4.17587214,32.0947692 5.73512715,33.6535385 C7.29438217,35.2110769 9.29025322,35.7323077 10.8938472,36.152 C11.5355312,36.32 12.136571,36.4769231 12.5959724,36.6676923 C13.0165771,36.8418462 13.5277073,37.1452308 14.0690127,37.4664615 C15.5087987,38.3212308 17.3008335,39.3846154 19.5824448,39.3846154 C21.8646719,39.3846154 23.6567067,38.3212308 25.0964927,37.4664615 C25.6402614,37.144 26.1507758,36.8406154 26.5683014,36.6676923 C27.0289344,36.4769231 27.6293584,36.32 28.2655,36.1532308 C29.8752522,35.7323077 31.8711232,35.2110769 33.4291466,33.6535385 C34.9884016,32.0953846 35.5106166,30.1009231 35.9306055,28.4984615 C36.0974926,27.8596923 36.2557582,27.2578462 36.4466622,26.7975385 C36.6209392,26.3772308 36.9245382,25.8664615 37.2466118,25.3255385 C38.1013693,23.8861538 39.1648896,22.096 39.1648896,19.8153846 C39.1648896,17.536 38.1013693,15.7458462 37.2472276,14.3076923 C36.9245382,13.7655385 36.6209392,13.2535385 36.4466622,12.8350769 C36.2557582,12.3741538 36.0974926,11.7723077 35.9312213,11.1353846 C35.5106166,9.53046154 34.9884016,7.536 33.4291466,5.97907692 C31.8711232,4.42030769 29.8746364,3.89846154 28.2704265,3.47938462 C27.6324375,3.31261538 27.030166,3.15446154 26.5689172,2.96369231 C26.1489283,2.78953846 25.6371823,2.48615385 25.0958769,2.16430769 C23.6560909,1.31015385 21.8646719,0.247384615 19.5824448,0.247384615 C17.3008335,0.247384615 15.5100303,1.31015385 14.0690127,2.16430769 M12.1224072,13.0030769 C11.8588364,12.9378462 11.5903391,12.8516923 11.3871187,12.6701538 C10.5471409,11.9187692 11.9210342,11.3975385 12.4955938,11.2584615 C15.3720868,10.5636923 18.3317154,10.2412308 21.2894965,10.2012308 C22.8961696,10.1803077 24.5176224,10.2436923 26.0787249,10.6264615 C26.7801433,10.7981538 27.4821775,11.0436923 28.0438049,11.4996923 C28.3172288,11.7224615 28.562325,12.0135385 28.606664,12.3630769 C28.6503872,12.712 28.4194549,13.1089231 28.0696694,13.1415385 C27.951432,13.1526154 27.8288839,13.1249231 27.7081833,13.0972308 C27.5197425,13.0541538 27.3356125,13.0104615 27.1835051,13.1138462 C26.9919852,13.2443077 26.9895219,13.5249231 27.0443299,13.7501538 C27.3664035,15.0646154 28.8394438,15.8270769 29.2452688,17.1193846 C29.2988451,17.2892308 29.3259412,17.4923077 29.2126304,17.6301538 C29.1202575,17.7433846 28.9632235,17.7747692 28.8191217,17.7993846 C28.1472626,17.9132308 27.4686295,18.0276923 26.7875331,18 C26.1064367,17.9729231 25.4124082,17.792 24.8766452,17.3698462 C24.095786,16.7550769 23.7626277,15.7384615 23.1388025,14.9649231 C22.4657118,14.1304615 21.4730107,13.6141538 20.4255017,13.3489231 C20.2185864,13.296 20.0098235,13.2535385 19.8004449,13.2209231 C18.5324725,13.0184615 17.2386357,13.1187692 15.9558837,13.1932308 C15.4472167,13.2227692 14.9348549,13.2473846 14.4237247,13.2473846 C13.6471763,13.2473846 12.8743228,13.1901538 12.1224072,13.0030769 M14.4791485,19.7852308 C14.1108884,19.6836923 13.7247696,19.5563077 13.4765943,19.2658462 C12.9900969,18.6947692 13.2025546,17.6363077 13.6533345,17.1070769 C14.1576907,16.5150769 15.0161431,16.2978462 15.7452734,16.1538462 C17.0415735,15.8990769 18.3649696,15.7846154 19.6859025,15.8104615 C20.2302869,15.8215385 20.8073098,15.8670769 21.2519315,16.184 C21.7673724,16.5513846 21.9878358,17.1975385 22.1781241,17.8012308 C22.2126099,17.9113846 22.2483275,18.0258462 22.2551015,18.1396923 C22.2594122,18.1993846 22.2551015,18.2590769 22.2403218,18.3181538 C22.1978303,18.48 22.0734347,18.6067692 21.9490392,18.7187692 C20.9723494,19.5963077 19.6785126,20.0732308 18.3717436,20.2030769 C18.0983198,20.2307692 17.8242801,20.2430769 17.5502404,20.2430769 C16.5150478,20.2430769 15.4798552,20.0609231 14.4791485,19.7852308 M30.7552583,24.4418462 C30.677665,24.4313846 30.6086932,24.3864615 30.5452638,24.3415385 C30.1868569,24.0910769 29.8444612,23.8036923 29.6129131,23.4332308 C28.9453647,22.3624615 29.0063309,20.5175385 30.0070376,19.6886154 C30.0624613,19.6424615 30.1234275,19.5981538 30.1942467,19.5883077 C30.2952411,19.5747692 30.3913089,19.6332308 30.4719813,19.6966154 C31.2220495,20.2793846 31.4856202,21.2843077 31.6321853,22.2233846 C31.6783717,22.5249231 31.7184,22.8332308 31.7005412,23.1366154 C31.6949989,23.2369231 31.6826825,23.3372308 31.6617446,23.4369231 C31.5810722,23.8350769 31.3482925,24.2233846 30.9788008,24.3944615 C30.9202979,24.4227692 30.8562527,24.4443077 30.7922074,24.4443077 C30.7798911,24.4443077 30.7675747,24.4436923 30.7552583,24.4418462 M23.6413112,24.8984615 C23.382667,24.8972308 23.1178646,24.8744615 22.8659945,24.816 C22.2883557,24.6806154 21.7125645,24.5310769 21.1447789,24.36 C20.8984511,24.2861538 20.6595131,24.168 20.4439763,24.0289231 C20.2302869,23.8904615 20.1416089,23.6621538 20.1594677,23.4 C20.1730157,23.2055385 20.1810214,23.0110769 20.1921061,22.8055385 C20.1921061,22.6221538 20.1982643,22.4270769 20.1908745,22.232 C20.1810214,21.9606154 20.2616937,21.7144615 20.4581401,21.536 C20.6644397,21.3483077 20.8879822,21.1686154 21.1324625,21.0381538 C21.7291916,20.72 22.3388529,20.4276923 22.9472826,20.1329231 C23.4861247,19.8707692 24.0459046,19.816 24.6204643,20.0061538 C25.0675492,20.1538462 25.5134026,20.3070769 25.9567926,20.4652308 C26.4845499,20.6535385 26.8029286,21.0067692 26.8164767,21.5913846 C26.8232507,21.9298462 26.832488,22.2676923 26.8472676,22.6055385 C26.8712846,23.1827692 26.5923183,23.5846154 26.1082842,23.8547692 C25.6341032,24.1187692 25.150069,24.3649231 24.6697298,24.6184615 C24.3501195,24.7870769 24.0108029,24.8984615 23.6493169,24.8984615 C23.6468536,24.8984615 23.6443903,24.8984615 23.6413112,24.8984615 M26.2271374,30.0018462 C25.8139225,29.7975385 25.413024,29.568 25.0047356,29.3538462 C24.6001422,29.1415385 24.4449557,28.8098462 24.5619614,28.3710769 C24.6955942,27.8658462 24.8323062,27.3618462 24.9751763,26.8596923 C25.098956,26.4221538 25.3846963,26.1003077 25.7640411,25.8744615 C26.3626177,25.5181538 26.9716632,25.1766154 27.5850194,24.848 C27.9643642,24.6436923 28.3492514,24.6387692 28.70889,24.9224615 C28.9348958,25.0996923 29.1664439,25.2701538 29.3992237,25.4375385 C29.7921166,25.7181538 29.8961901,26.1169231 29.8413821,26.5643077 C29.7767211,27.0873846 29.6954329,27.6092308 29.6073707,28.1292308 C29.5254667,28.6086154 29.2828338,28.9883077 28.8511443,29.2313846 C28.4182232,29.4750769 27.9840705,29.7169231 27.5486861,29.9563077 C27.3159063,30.0843077 27.0664994,30.1563077 26.7863015,30.1907692 C26.5990924,30.1298462 26.4014143,30.0886154 26.2271374,30.0018462" id="path-1"></path>
        <linearGradient x1="-15.8608404%" y1="49.9992325%" x2="124.048445%" y2="49.9992325%" id="linearGradient-3">
            <stop stop-color="#00CD87" offset="0%"></stop>
            <stop stop-color="#00C8D6" offset="100%"></stop>
        </linearGradient>
        <polygon id="path-4" points="0 39.3846154 176.56654 39.3846154 176.56654 0.246769231 0 0.246769231"></polygon>
    </defs>
    <g id="Page-2" stroke="none" stroke-width="1" fill="none" fill-rule="evenodd">
        <g id="ML_ForBright_Horizontal">
            <g>
                <g id="Group-3" transform="translate(0.000000, 0.368615)">
                    <mask id="mask-2" fill="white">
                        <use xlink:href="#path-1"></use>
                    </mask>
                    <g id="Clip-2"></g>
                    <path d="M14.0690127,2.16430769 C13.5283231,2.48615385 13.0165771,2.78953846 12.5959724,2.96369231 C12.1359552,3.15446154 11.5336837,3.312 10.8963105,3.47876923 C9.29086904,3.89846154 7.29438217,4.42030769 5.73574297,5.97907692 C4.17648796,7.536 3.65427301,9.53107692 3.2342841,11.1341538 C3.06801283,11.7716923 2.91036303,12.3735385 2.71884316,12.8350769 C2.54518206,13.2529231 2.24219886,13.7636923 1.92074107,14.3033846 C1.06413612,15.7452308 0,17.5353846 0,19.8153846 C0,22.096 1.06413612,23.8855385 1.91889361,25.3249231 C2.24096722,25.8664615 2.54518206,26.3772308 2.71884316,26.7969231 C2.91036303,27.2578462 3.06801283,27.8596923 3.2342841,28.4972308 C3.65427301,30.0996923 4.17587214,32.0947692 5.73512715,33.6535385 C7.29438217,35.2110769 9.29025322,35.7323077 10.8938472,36.152 C11.5355312,36.32 12.136571,36.4769231 12.5959724,36.6676923 C13.0165771,36.8418462 13.5277073,37.1452308 14.0690127,37.4664615 C15.5087987,38.3212308 17.3008335,39.3846154 19.5824448,39.3846154 C21.8646719,39.3846154 23.6567067,38.3212308 25.0964927,37.4664615 C25.6402614,37.144 26.1507758,36.8406154 26.5683014,36.6676923 C27.0289344,36.4769231 27.6293584,36.32 28.2655,36.1532308 C29.8752522,35.7323077 31.8711232,35.2110769 33.4291466,33.6535385 C34.9884016,32.0953846 35.5106166,30.1009231 35.9306055,28.4984615 C36.0974926,27.8596923 36.2557582,27.2578462 36.4466622,26.7975385 C36.6209392,26.3772308 36.9245382,25.8664615 37.2466118,25.3255385 C38.1013693,23.8861538 39.1648896,22.096 39.1648896,19.8153846 C39.1648896,17.536 38.1013693,15.7458462 37.2472276,14.3076923 C36.9245382,13.7655385 36.6209392,13.2535385 36.4466622,12.8350769 C36.2557582,12.3741538 36.0974926,11.7723077 35.9312213,11.1353846 C35.5106166,9.53046154 34.9884016,7.536 33.4291466,5.97907692 C31.8711232,4.42030769 29.8746364,3.89846154 28.2704265,3.47938462 C27.6324375,3.31261538 27.030166,3.15446154 26.5689172,2.96369231 C26.1489283,2.78953846 25.6371823,2.48615385 25.0958769,2.16430769 C23.6560909,1.31015385 21.8646719,0.247384615 19.5824448,0.247384615 C17.3008335,0.247384615 15.5100303,1.31015385 14.0690127,2.16430769 M12.1224072,13.0030769 C11.8588364,12.9378462 11.5903391,12.8516923 11.3871187,12.6701538 C10.5471409,11.9187692 11.9210342,11.3975385 12.4955938,11.2584615 C15.3720868,10.5636923 18.3317154,10.2412308 21.2894965,10.2012308 C22.8961696,10.1803077 24.5176224,10.2436923 26.0787249,10.6264615 C26.7801433,10.7981538 27.4821775,11.0436923 28.0438049,11.4996923 C28.3172288,11.7224615 28.562325,12.0135385 28.606664,12.3630769 C28.6503872,12.712 28.4194549,13.1089231 28.0696694,13.1415385 C27.951432,13.1526154 27.8288839,13.1249231 27.7081833,13.0972308 C27.5197425,13.0541538 27.3356125,13.0104615 27.1835051,13.1138462 C26.9919852,13.2443077 26.9895219,13.5249231 27.0443299,13.7501538 C27.3664035,15.0646154 28.8394438,15.8270769 29.2452688,17.1193846 C29.2988451,17.2892308 29.3259412,17.4923077 29.2126304,17.6301538 C29.1202575,17.7433846 28.9632235,17.7747692 28.8191217,17.7993846 C28.1472626,17.9132308 27.4686295,18.0276923 26.7875331,18 C26.1064367,17.9729231 25.4124082,17.792 24.8766452,17.3698462 C24.095786,16.7550769 23.7626277,15.7384615 23.1388025,14.9649231 C22.4657118,14.1304615 21.4730107,13.6141538 20.4255017,13.3489231 C20.2185864,13.296 20.0098235,13.2535385 19.8004449,13.2209231 C18.5324725,13.0184615 17.2386357,13.1187692 15.9558837,13.1932308 C15.4472167,13.2227692 14.9348549,13.2473846 14.4237247,13.2473846 C13.6471763,13.2473846 12.8743228,13.1901538 12.1224072,13.0030769 M14.4791485,19.7852308 C14.1108884,19.6836923 13.7247696,19.5563077 13.4765943,19.2658462 C12.9900969,18.6947692 13.2025546,17.6363077 13.6533345,17.1070769 C14.1576907,16.5150769 15.0161431,16.2978462 15.7452734,16.1538462 C17.0415735,15.8990769 18.3649696,15.7846154 19.6859025,15.8104615 C20.2302869,15.8215385 20.8073098,15.8670769 21.2519315,16.184 C21.7673724,16.5513846 21.9878358,17.1975385 22.1781241,17.8012308 C22.2126099,17.9113846 22.2483275,18.0258462 22.2551015,18.1396923 C22.2594122,18.1993846 22.2551015,18.2590769 22.2403218,18.3181538 C22.1978303,18.48 22.0734347,18.6067692 21.9490392,18.7187692 C20.9723494,19.5963077 19.6785126,20.0732308 18.3717436,20.2030769 C18.0983198,20.2307692 17.8242801,20.2430769 17.5502404,20.2430769 C16.5150478,20.2430769 15.4798552,20.0609231 14.4791485,19.7852308 M30.7552583,24.4418462 C30.677665,24.4313846 30.6086932,24.3864615 30.5452638,24.3415385 C30.1868569,24.0910769 29.8444612,23.8036923 29.6129131,23.4332308 C28.9453647,22.3624615 29.0063309,20.5175385 30.0070376,19.6886154 C30.0624613,19.6424615 30.1234275,19.5981538 30.1942467,19.5883077 C30.2952411,19.5747692 30.3913089,19.6332308 30.4719813,19.6966154 C31.2220495,20.2793846 31.4856202,21.2843077 31.6321853,22.2233846 C31.6783717,22.5249231 31.7184,22.8332308 31.7005412,23.1366154 C31.6949989,23.2369231 31.6826825,23.3372308 31.6617446,23.4369231 C31.5810722,23.8350769 31.3482925,24.2233846 30.9788008,24.3944615 C30.9202979,24.4227692 30.8562527,24.4443077 30.7922074,24.4443077 C30.7798911,24.4443077 30.7675747,24.4436923 30.7552583,24.4418462 M23.6413112,24.8984615 C23.382667,24.8972308 23.1178646,24.8744615 22.8659945,24.816 C22.2883557,24.6806154 21.7125645,24.5310769 21.1447789,24.36 C20.8984511,24.2861538 20.6595131,24.168 20.4439763,24.0289231 C20.2302869,23.8904615 20.1416089,23.6621538 20.1594677,23.4 C20.1730157,23.2055385 20.1810214,23.0110769 20.1921061,22.8055385 C20.1921061,22.6221538 20.1982643,22.4270769 20.1908745,22.232 C20.1810214,21.9606154 20.2616937,21.7144615 20.4581401,21.536 C20.6644397,21.3483077 20.8879822,21.1686154 21.1324625,21.0381538 C21.7291916,20.72 22.3388529,20.4276923 22.9472826,20.1329231 C23.4861247,19.8707692 24.0459046,19.816 24.6204643,20.0061538 C25.0675492,20.1538462 25.5134026,20.3070769 25.9567926,20.4652308 C26.4845499,20.6535385 26.8029286,21.0067692 26.8164767,21.5913846 C26.8232507,21.9298462 26.832488,22.2676923 26.8472676,22.6055385 C26.8712846,23.1827692 26.5923183,23.5846154 26.1082842,23.8547692 C25.6341032,24.1187692 25.150069,24.3649231 24.6697298,24.6184615 C24.3501195,24.7870769 24.0108029,24.8984615 23.6493169,24.8984615 C23.6468536,24.8984615 23.6443903,24.8984615 23.6413112,24.8984615 M26.2271374,30.0018462 C25.8139225,29.7975385 25.413024,29.568 25.0047356,29.3538462 C24.6001422,29.1415385 24.4449557,28.8098462 24.5619614,28.3710769 C24.6955942,27.8658462 24.8323062,27.3618462 24.9751763,26.8596923 C25.098956,26.4221538 25.3846963,26.1003077 25.7640411,25.8744615 C26.3626177,25.5181538 26.9716632,25.1766154 27.5850194,24.848 C27.9643642,24.6436923 28.3492514,24.6387692 28.70889,24.9224615 C28.9348958,25.0996923 29.1664439,25.2701538 29.3992237,25.4375385 C29.7921166,25.7181538 29.8961901,26.1169231 29.8413821,26.5643077 C29.7767211,27.0873846 29.6954329,27.6092308 29.6073707,28.1292308 C29.5254667,28.6086154 29.2828338,28.9883077 28.8511443,29.2313846 C28.4182232,29.4750769 27.9840705,29.7169231 27.5486861,29.9563077 C27.3159063,30.0843077 27.0664994,30.1563077 26.7863015,30.1907692 C26.5990924,30.1298462 26.4014143,30.0886154 26.2271374,30.0018462" id="Fill-1" fill="url(#linearGradient-3)" mask="url(#mask-2)"></path>
                </g>
                <g id="Group-25" transform="translate(0.000000, 0.368615)">
                    <path d="M69.9843163,9.70781538 C69.5754121,9.72012308 69.1837509,9.80812308 68.8542874,10.0468923 C68.5771687,10.2475077 68.3776431,10.5348923 68.18366,10.8161231 C66.1871731,13.7090462 64.1919179,16.6019692 62.1960468,19.4948923 C60.370142,16.8561231 58.5448529,14.2173538 56.7189481,11.5785846 C56.3180496,10.9988923 55.9017556,10.4038154 55.3093372,10.0210462 C54.9521619,9.79027692 54.5192408,9.65366154 54.091862,9.67027692 C53.8079692,9.68135385 53.2906808,9.75889231 53.2334096,10.0998154 C53.1921497,10.3453538 53.228483,10.6253538 53.2278672,10.8745846 C53.2272514,11.1472 53.2266356,11.4204308 53.2260198,11.6942769 C53.2247881,12.2407385 53.2241723,12.7865846 53.2235565,13.3336615 C53.2204774,15.5195077 53.2198616,17.7059692 53.2223248,19.8918154 C53.2241723,22.0782769 53.228483,24.2641231 53.2352571,26.4505846 C53.2358729,26.6032 53.2364887,26.7564308 53.2371045,26.9090462 C54.3486587,26.9078154 55.4608288,26.9065846 56.5729988,26.9053538 C56.5853152,23.7078154 56.5976316,20.5108923 56.609948,17.3133538 C58.0903781,19.4235077 59.5701924,21.5336615 61.0506225,23.6438154 C61.3480634,24.0672 61.7631257,24.5435077 62.2736401,24.4530462 C62.560612,24.4013538 62.7816912,24.1773538 62.9750585,23.9582769 C64.7461555,21.9459692 65.8909639,19.4290462 67.7599762,17.5072 C67.7766033,20.6352 67.7926146,23.7638154 67.8092417,26.8924308 C68.9294174,26.8924308 70.0483615,26.8924308 71.1685372,26.8924308 C71.1673056,21.2007385 71.1666897,15.5096615 71.1654581,9.81796923 C70.7818025,9.75458462 70.3753617,9.69612308 69.9843163,9.70781538" id="Fill-4" fill="#000000"></path>
                    <path d="M104.470209,19.3000615 C104.667887,17.7449846 105.995594,16.6699077 107.682324,16.6779077 C109.295771,16.6852923 110.532952,17.7536 110.689986,19.3000615 L104.470209,19.3000615 Z M110.858721,14.6988308 C108.455177,13.4311385 105.062628,13.7911385 103.153587,15.5911385 C100.959422,17.6588308 100.520343,20.2385231 101.415129,22.9911385 C102.312993,25.7523692 104.457893,27.0329846 107.282657,27.2219077 C109.503302,27.3696 111.539201,26.8077538 113.443931,25.5012923 C112.999309,24.7111385 112.587326,23.9794462 112.18027,23.2551385 C108.057358,25.2212923 104.844627,24.6089846 104.480678,21.8065231 L113.787558,21.8065231 C113.85653,21.5505231 113.927965,21.3677538 113.953214,21.1788308 C114.318395,18.4600615 113.07875,15.8699077 110.858721,14.6988308 Z" id="Fill-6" fill="#000000"></path>
                    <path d="M126.309817,14.2883692 C125.776518,14.2760615 125.242602,14.2662154 124.709302,14.2569846 C124.406935,14.2520615 124.08794,14.2514462 123.825601,14.4022154 C123.46042,14.6120615 123.306465,15.0508308 123.178991,15.4520615 C122.427075,17.8256 121.616041,20.1806769 120.74712,22.5136 C119.753803,19.9966769 118.747554,17.4840615 117.729604,14.9776 C117.644621,14.7689846 117.549785,14.5480615 117.362575,14.4249846 C117.181525,14.3056 116.950592,14.3012923 116.73444,14.3012923 C116.191903,14.3012923 115.649366,14.3006769 115.107444,14.3000615 C114.836484,14.3000615 114.564907,14.2994462 114.293947,14.2994462 C114.164009,14.2994462 114.033455,14.2957538 113.903517,14.2994462 C113.752641,14.3031385 113.719387,14.3006769 113.761263,14.4471385 C113.833314,14.7012923 113.984805,14.9554462 114.091342,15.1979077 C114.201574,15.4471385 114.311806,15.6976 114.422037,15.9474462 C114.641885,16.4471385 114.862348,16.9474462 115.082812,17.4471385 C115.963434,19.4465231 116.844055,21.4465231 117.725293,23.4459077 C118.077542,24.2459077 118.430407,25.0452923 118.782039,25.8452923 C118.942768,26.2089846 119.105961,26.5856 119.108424,26.9831385 C119.110887,27.3782154 118.950774,27.7616 118.727232,28.0877538 C117.908807,29.2828308 116.146948,29.7105231 114.870354,29.0243692 C114.686224,29.9209846 114.50271,30.8169846 114.31858,31.7136 C115.630891,32.4422154 117.283751,32.6077538 118.653333,31.9929846 C119.664509,31.5388308 120.465074,30.7006769 121.055645,29.7628308 C121.646216,28.8249846 122.046499,27.7825231 122.443086,26.7474462 C124.031901,22.6016 125.621331,18.4557538 127.210145,14.3099077 C126.910241,14.3019077 126.609721,14.2951385 126.309817,14.2883692" id="Fill-8" fill="#000000"></path>
                    <path d="M79.5319205,24.252 C77.5415918,24.2772308 75.9848,22.6396923 76.0075854,20.5449231 C76.029139,18.5553846 77.574846,16.9984615 79.5251464,17.0033846 C81.4501982,17.0070769 83.0211538,18.6101538 83.0279278,20.5775385 C83.034086,22.6101538 81.4951531,24.2273846 79.5319205,24.252 M79.5245306,13.9523077 C75.6042236,13.9596923 72.7191091,16.7676923 72.712951,20.5812308 C72.7067928,24.4507692 75.5974496,27.2969231 79.5343837,27.2975385 C83.4275947,27.2975385 86.3330312,24.3990769 86.3164041,20.5313846 C86.3003928,16.7966154 83.3567755,13.9449231 79.5245306,13.9523077" id="Fill-10" fill="#000000"></path>
                    <path d="M153.088975,24.252 C151.115274,24.2218462 149.615753,22.6206154 149.631764,20.5596923 C149.64716,18.5701538 151.186093,17.0070769 153.135162,17.0033846 C155.093468,16.9990769 156.677356,18.6390769 156.651491,20.6446154 C156.625011,22.6735385 155.036812,24.2821538 153.088975,24.252 M153.194896,13.9523077 C149.274589,13.9344615 146.358684,16.7344615 146.338978,20.5350769 C146.318655,24.4187692 149.182832,27.2784615 153.112992,27.2975385 C157.019751,27.316 159.915335,24.4661538 159.942431,20.5769231 C159.968295,16.8581538 157.025909,13.9695385 153.194896,13.9523077" id="Fill-12" fill="#000000"></path>
                    <path d="M96.5643798,14.2138462 C94.5093901,13.5984615 92.612666,13.9184615 91.1470155,15.6710769 C91.104524,15.7215385 91.0152301,15.7338462 90.9160832,15.7787692 C90.8939137,15.2809231 90.8742075,14.8249231 90.8532696,14.3523077 L87.7261381,14.3523077 L87.7261381,26.9258462 L90.9893657,26.9258462 C90.9893657,26.5836923 90.9887499,26.2858462 90.9893657,25.9886154 C90.9961397,23.9387692 90.9665804,21.8883077 91.0220042,19.8403077 C91.0688064,18.1283077 92.2493324,16.9818462 93.8424575,16.9775385 C95.4663736,16.9732308 96.4812442,17.9978462 96.5231199,19.8021538 C96.5717696,21.8784615 96.5446736,23.9566154 96.5502159,26.0341538 C96.5508318,26.3276923 96.5502159,26.6218462 96.5502159,26.9215385 L99.8165227,26.9215385 C99.8165227,24.052 99.9175171,21.2273846 99.7832684,18.4144615 C99.6853531,16.3756923 98.5910418,14.8206154 96.5643798,14.2138462" id="Fill-14" fill="#000000"></path>
                    <path d="M173.434174,18.6300308 C173.356581,16.5623385 172.346021,14.9912615 170.319359,14.2435692 C168.345042,13.5149538 166.259261,14.0374154 164.850882,15.5629538 C164.77452,15.6454154 164.672294,15.7038769 164.542972,15.8029538 C164.517107,15.2601846 164.494938,14.8029538 164.472153,14.3328 L161.376428,14.3328 L161.376428,26.9131077 L164.614407,26.9131077 C164.614407,26.5284923 164.613175,26.2004923 164.614407,25.8737231 C164.624876,23.7961846 164.580537,21.7168 164.663057,19.6429538 C164.728334,18.0183385 165.987069,16.9432615 167.583273,16.9789538 C169.085257,17.0128 170.051477,18.0220308 170.150009,19.6681846 C170.169715,19.9998769 170.17341,20.3328 170.174026,20.6651077 C170.175873,22.4651077 170.175257,24.2657231 170.175257,26.0657231 L170.175257,26.9106462 L173.459423,26.9106462 C173.459423,24.1088 173.537016,21.3660308 173.434174,18.6300308" id="Fill-16" fill="#000000"></path>
                    <polygon id="Fill-18" fill="#000000" points="131.716589 9.81993846 128.35052 9.81993846 128.35052 26.9190154 140.436594 26.9190154 140.436594 23.6230154 131.716589 23.6230154"></polygon>
                    <mask id="mask-5" fill="white">
                        <use xlink:href="#path-4"></use>
                    </mask>
                    <g id="Clip-21"></g>
                    <polygon id="Fill-20" fill="#000000" mask="url(#mask-5)" points="141.769042 26.9249231 144.97192 26.9249231 144.97192 14.3452308 141.769042 14.3452308"></polygon>
                    <path d="M143.385877,8.84547692 C142.210277,8.85286154 141.320418,9.7544 141.357367,10.9008615 C141.3937,12.0282462 142.273091,12.8614769 143.411741,12.8454769 C144.559629,12.8300923 145.380516,11.9900923 145.380516,10.8319385 C145.3799,9.68855385 144.525759,8.83809231 143.385877,8.84547692" id="Fill-22" fill="#000000" mask="url(#mask-5)"></path>
                    <path d="M174.234616,12.6645538 C173.201271,12.6645538 172.447508,11.8553231 172.447508,10.8362462 C172.447508,9.83193846 173.201271,9.00855385 174.220452,9.00855385 C175.24025,9.00855385 175.979849,9.83193846 175.979849,10.8504 C175.979849,11.8553231 175.24025,12.6645538 174.234616,12.6645538 M174.220452,8.54824615 C172.908141,8.54824615 171.860632,9.56670769 171.860632,10.8362462 C171.860632,12.1347077 172.908141,13.1531692 174.220452,13.1531692 C175.547543,13.1531692 176.566725,12.1347077 176.566725,10.8362462 C176.566725,9.56670769 175.547543,8.54824615 174.220452,8.54824615" id="Fill-23" fill="#000000" mask="url(#mask-5)"></path>
                    <path d="M174.12303,10.7390769 L173.871775,10.7390769 L173.871775,10.0830769 C173.927199,10.0689231 174.025114,10.0553846 174.164906,10.0553846 C174.499911,10.0553846 174.653866,10.1950769 174.653866,10.4043077 C174.653866,10.6412308 174.41616,10.7390769 174.12303,10.7390769 M174.751166,10.9064615 L174.751166,10.8787692 C175.030748,10.7944615 175.225963,10.5993846 175.225963,10.3483077 C175.225963,10.1249231 175.128047,9.94338462 175.00242,9.84553846 C174.834917,9.74830769 174.639702,9.67815385 174.206781,9.67815385 C173.829284,9.67815385 173.536154,9.70646154 173.326775,9.74830769 L173.326775,12.0369231 L173.857612,12.0369231 L173.857612,11.1156923 L174.108866,11.1156923 C174.401996,11.1156923 174.541787,11.2270769 174.583663,11.4787692 C174.653866,11.7433846 174.695126,11.9532308 174.76533,12.0369231 L175.338042,12.0369231 C175.282002,11.9532308 175.240126,11.8135385 175.170539,11.4646154 C175.100335,11.1575385 174.974708,10.9901538 174.751166,10.9064615" id="Fill-24" fill="#000000" mask="url(#mask-5)"></path>
                </g>
            </g>
        </g>
    </g>
</svg>